<?xml version="1.0" encoding="UTF-8" ?>
<svg version="1.1" width="48" height="16" xmlns="http://www.w3.org/2000/svg" shape-rendering="crispEdges">
<rect x="0" y="0" width="1" height="1" fill="#7FFF00" />
<rect x="1" y="0" width="1" height="1" fill="#7FFF00" />
<rect x="0" y="1" width="1" height="1" fill="#7FFF00" />
<rect x="1" y="1" width="1" height="1" fill="#FFFF00" />
<rect x="2" y="1" width="1" height="1" fill="#1FDF00" />
<rect x="1" y="2" width="1" height="1" fill="#1FDF00" />
<rect x="27" y="2" width="1" height="1" fill="#1FDF00" />
<rect x="3" y="3" width="1" height="1" fill="#1FDF00" />
<rect x="4" y="3" width="1" height="1" fill="#1FDF00" />
<rect x="5" y="3" width="1" height="1" fill="#1FDF00" />
<rect x="7" y="3" width="1" height="1" fill="#1FDF00" />
<rect x="8" y="3" width="1" height="1" fill="#1FDF00" />
<rect x="9" y="3" width="1" height="1" fill="#1FDF00" />
<rect x="11" y="3" width="1" height="1" fill="#1FDF00" />
<rect x="12" y="3" width="1" height="1" fill="#1FDF00" />
<rect x="15" y="3" width="1" height="1" fill="#1FDF00" />
<rect x="16" y="3" width="1" height="1" fill="#1FDF00" />
<rect x="17" y="3" width="1" height="1" fill="#1FDF00" />
<rect x="20" y="3" width="1" height="1" fill="#1FDF00" />
<rect x="23" y="3" width="1" height="1" fill="#1FDF00" />
<rect x="24" y="3" width="1" height="1" fill="#1FDF00" />
<rect x="25" y="3" width="1" height="1" fill="#1FDF00" />
<rect x="27" y="3" width="1" height="1" fill="#1FDF00" />
<rect x="29" y="3" width="1" height="1" fill="#1FDF00" />
<rect x="30" y="3" width="1" height="1" fill="#1FDF00" />
<rect x="31" y="3" width="1" height="1" fill="#1FDF00" />
<rect x="34" y="3" width="1" height="1" fill="#1FDF00" />
<rect x="35" y="3" width="1" height="1" fill="#1FDF00" />
<rect x="3" y="4" width="1" height="1" fill="#1FDF00" />
<rect x="5" y="4" width="1" height="1" fill="#1FDF00" />
<rect x="7" y="4" width="1" height="1" fill="#1FDF00" />
<rect x="11" y="4" width="1" height="1" fill="#1FDF00" />
<rect x="13" y="4" width="1" height="1" fill="#1FDF00" />
<rect x="16" y="4" width="1" height="1" fill="#1FDF00" />
<rect x="19" y="4" width="1" height="1" fill="#1FDF00" />
<rect x="21" y="4" width="1" height="1" fill="#1FDF00" />
<rect x="25" y="4" width="1" height="1" fill="#1FDF00" />
<rect x="29" y="4" width="1" height="1" fill="#1FDF00" />
<rect x="33" y="4" width="1" height="1" fill="#1FDF00" />
<rect x="3" y="5" width="1" height="1" fill="#1FDF00" />
<rect x="4" y="5" width="1" height="1" fill="#1FDF00" />
<rect x="5" y="5" width="1" height="1" fill="#1FDF00" />
<rect x="7" y="5" width="1" height="1" fill="#1FDF00" />
<rect x="8" y="5" width="1" height="1" fill="#1FDF00" />
<rect x="11" y="5" width="1" height="1" fill="#1FDF00" />
<rect x="12" y="5" width="1" height="1" fill="#1FDF00" />
<rect x="16" y="5" width="1" height="1" fill="#1FDF00" />
<rect x="19" y="5" width="1" height="1" fill="#1FDF00" />
<rect x="20" y="5" width="1" height="1" fill="#1FDF00" />
<rect x="21" y="5" width="1" height="1" fill="#1FDF00" />
<rect x="24" y="5" width="1" height="1" fill="#1FDF00" />
<rect x="29" y="5" width="1" height="1" fill="#1FDF00" />
<rect x="30" y="5" width="1" height="1" fill="#1FDF00" />
<rect x="34" y="5" width="1" height="1" fill="#1FDF00" />
<rect x="3" y="6" width="1" height="1" fill="#1FDF00" />
<rect x="7" y="6" width="1" height="1" fill="#1FDF00" />
<rect x="11" y="6" width="1" height="1" fill="#1FDF00" />
<rect x="13" y="6" width="1" height="1" fill="#1FDF00" />
<rect x="16" y="6" width="1" height="1" fill="#1FDF00" />
<rect x="19" y="6" width="1" height="1" fill="#1FDF00" />
<rect x="21" y="6" width="1" height="1" fill="#1FDF00" />
<rect x="23" y="6" width="1" height="1" fill="#1FDF00" />
<rect x="29" y="6" width="1" height="1" fill="#1FDF00" />
<rect x="35" y="6" width="1" height="1" fill="#1FDF00" />
<rect x="3" y="7" width="1" height="1" fill="#1FDF00" />
<rect x="7" y="7" width="1" height="1" fill="#1FDF00" />
<rect x="8" y="7" width="1" height="1" fill="#1FDF00" />
<rect x="9" y="7" width="1" height="1" fill="#1FDF00" />
<rect x="11" y="7" width="1" height="1" fill="#1FDF00" />
<rect x="13" y="7" width="1" height="1" fill="#1FDF00" />
<rect x="16" y="7" width="1" height="1" fill="#1FDF00" />
<rect x="19" y="7" width="1" height="1" fill="#1FDF00" />
<rect x="21" y="7" width="1" height="1" fill="#1FDF00" />
<rect x="23" y="7" width="1" height="1" fill="#1FDF00" />
<rect x="24" y="7" width="1" height="1" fill="#1FDF00" />
<rect x="25" y="7" width="1" height="1" fill="#1FDF00" />
<rect x="29" y="7" width="1" height="1" fill="#1FDF00" />
<rect x="30" y="7" width="1" height="1" fill="#1FDF00" />
<rect x="31" y="7" width="1" height="1" fill="#1FDF00" />
<rect x="33" y="7" width="1" height="1" fill="#1FDF00" />
<rect x="34" y="7" width="1" height="1" fill="#1FDF00" />
<rect x="32" y="9" width="1" height="1" fill="#1FDF00" />
<rect x="37" y="9" width="1" height="1" fill="#EFFF00" />
<rect x="38" y="9" width="1" height="1" fill="#FFFF00" />
<rect x="31" y="10" width="1" height="1" fill="#1FDF00" />
<rect x="32" y="10" width="1" height="1" fill="#1FDF00" />
<rect x="36" y="10" width="1" height="1" fill="#9FFF00" />
<rect x="37" y="10" width="1" height="1" fill="#9FFF00" />
<rect x="38" y="10" width="1" height="1" fill="#EFFF00" />
<rect x="31" y="11" width="1" height="1" fill="#1FDF00" />
<rect x="32" y="11" width="1" height="1" fill="#1FDF00" />
<rect x="33" y="11" width="1" height="1" fill="#1FDF00" />
<rect x="35" y="11" width="1" height="1" fill="#1FDF00" />
<rect x="36" y="11" width="1" height="1" fill="#1FDF00" />
<rect x="37" y="11" width="1" height="1" fill="#7FFF00" />
<rect x="31" y="12" width="1" height="1" fill="#1FDF00" />
<rect x="32" y="12" width="1" height="1" fill="#1FDF00" />
<rect x="33" y="12" width="1" height="1" fill="#1FDF00" />
<rect x="34" y="12" width="1" height="1" fill="#1FDF00" />
<rect x="35" y="12" width="1" height="1" fill="#1FDF00" />
<rect x="36" y="12" width="1" height="1" fill="#1FDF00" />
<rect x="32" y="13" width="1" height="1" fill="#1FDF00" />
<rect x="33" y="13" width="1" height="1" fill="#1FDF00" />
<rect x="34" y="13" width="1" height="1" fill="#1FDF00" />
<rect x="35" y="13" width="1" height="1" fill="#1FDF00" />
</svg>